<?xml version="1.0" encoding="UTF-8"?>
<svg version="1.1" xmlns="http://www.w3.org/2000/svg" width="108" height="108">
<path d="M0 0 C35.64 0 71.28 0 108 0 C108 35.64 108 71.28 108 108 C72.36 108 36.72 108 0 108 C0 72.36 0 36.72 0 0 Z " fill="#008F43" transform="translate(0,0)"/>
<path d="M0 0 C2.97 0 5.94 0 9 0 C9.495 1.98 9.495 1.98 10 4 C9.67 4.33 9.34 4.66 9 5 C8.68226104 8.81286755 9.10201022 11.65592276 11 15 C15.00119135 17.35364197 19.45935328 17.53823932 24 18 C24 18.33 24 18.66 24 19 C20.04 19.33 16.08 19.66 12 20 C12 20.66 12 21.32 12 22 C14.80747455 22.7795458 17.42029808 23.1710149 20.328125 23.31640625 C21.12734375 23.35830078 21.9265625 23.40019531 22.75 23.44335938 C23.575 23.48267578 24.4 23.52199219 25.25 23.5625 C26.09046875 23.60568359 26.9309375 23.64886719 27.796875 23.69335938 C29.86440671 23.79908543 31.93218281 23.90001295 34 24 C34.495 24.99 34.495 24.99 35 26 C27.08 26 19.16 26 11 26 C11 26.66 11 27.32 11 28 C12.32 28 13.64 28 15 28 C15 29.32 15 30.64 15 32 C13.68 32 12.36 32 11 32 C11 32.66 11 33.32 11 34 C11.63502441 34.00410889 12.27004883 34.00821777 12.92431641 34.01245117 C15.82546477 34.04552098 18.72455014 34.11617746 21.625 34.1875 C23.12353516 34.19620117 23.12353516 34.19620117 24.65234375 34.20507812 C32.99441964 34.45368304 32.99441964 34.45368304 36.7109375 37.55078125 C37.46632813 38.35902344 38.22171875 39.16726562 39 40 C38.01 40 37.02 40 36 40 C35.34 39.34 34.68 38.68 34 38 C31.57402049 37.72212332 31.57402049 37.72212332 28.7734375 37.8046875 C27.7421875 37.81113281 26.7109375 37.81757812 25.6484375 37.82421875 C24.02808594 37.84935547 24.02808594 37.84935547 22.375 37.875 C20.74304688 37.88853516 20.74304688 37.88853516 19.078125 37.90234375 C16.38519848 37.92596591 13.69270745 37.95890444 11 38 C11 38.66 11 39.32 11 40 C11.67579102 40.00410889 12.35158203 40.00821777 13.04785156 40.01245117 C16.116118 40.04538945 19.18239926 40.1160326 22.25 40.1875 C23.31347656 40.19330078 24.37695312 40.19910156 25.47265625 40.20507812 C33.38800648 40.42909747 33.38800648 40.42909747 36.734375 43.55078125 C37.15203125 44.35902344 37.5696875 45.16726562 38 46 C37.2575 45.62875 36.515 45.2575 35.75 44.875 C33.05716353 43.70484137 33.05716353 43.70484137 30.6875 44.875 C30.130625 45.24625 29.57375 45.6175 29 46 C29 47.32 29 48.64 29 50 C28.01 50 27.02 50 26 50 C26.103125 50.886875 26.20625 51.77375 26.3125 52.6875 C26 56 26 56 23.8125 58.875 C21 61 21 61 18.1875 61.3125 C17.465625 61.209375 16.74375 61.10625 16 61 C16 60.34 16 59.68 16 59 C16.94875 58.71125 17.8975 58.4225 18.875 58.125 C22.05211578 57.23174891 22.05211578 57.23174891 24 55 C24.24212873 53.01871492 24.24212873 53.01871492 24.125 50.875 C24.08375 49.59625 24.0425 48.3175 24 47 C24.33 47.66 24.66 48.32 25 49 C25.66 49 26.32 49 27 49 C27 47.68 27 46.36 27 45 C21.555 44.505 21.555 44.505 16 44 C16 44.66 16 45.32 16 46 C14.35 46 12.7 46 11 46 C11 46.99 11 47.98 11 49 C12.98 49.495 12.98 49.495 15 50 C14.071875 50.0928125 14.071875 50.0928125 13.125 50.1875 C10.7923875 50.80818955 10.7923875 50.80818955 9.88378906 53.17578125 C8.91669001 56.26622374 8.74144957 58.76590985 8.734375 62 C8.73179688 63.134375 8.72921875 64.26875 8.7265625 65.4375 C8.73816406 67.2009375 8.73816406 67.2009375 8.75 69 C8.74226563 70.175625 8.73453125 71.35125 8.7265625 72.5625 C8.73042969 74.2640625 8.73042969 74.2640625 8.734375 76 C8.73775879 77.546875 8.73775879 77.546875 8.74121094 79.125 C8.90178682 82.44721952 8.90178682 82.44721952 11 87 C-12.76 87 -36.52 87 -61 87 C-61 66.21 -61 45.42 -61 24 C-56.71 24 -52.42 24 -48 24 C-48.33 22.35 -48.66 20.7 -49 19 C-47.68 18.67 -46.36 18.34 -45 18 C-45 22 -45 22 -46 24 C-45.236875 23.9175 -44.47375 23.835 -43.6875 23.75 C-42.3571875 23.87375 -42.3571875 23.87375 -41 24 C-40.5875 24.66 -40.175 25.32 -39.75 26 C-38.09261118 28.34174027 -38.09261118 28.34174027 -34.86328125 28.390625 C-33.10564453 28.32101563 -33.10564453 28.32101563 -31.3125 28.25 C-29.54326172 28.19585937 -29.54326172 28.19585937 -27.73828125 28.140625 C-26.83464844 28.09421875 -25.93101563 28.0478125 -25 28 C-25 26.35 -25 24.7 -25 23 C-26.32 22.67 -27.64 22.34 -29 22 C-28.01 21.67 -27.02 21.34 -26 21 C-31.94 20.01 -31.94 20.01 -38 19 C-38 18.67 -38 18.34 -38 18 C-35.03 18 -32.06 18 -29 18 C-29 17.34 -29 16.68 -29 16 C-28.38125 15.87625 -27.7625 15.7525 -27.125 15.625 C-24.80879168 15.12802644 -24.80879168 15.12802644 -23 13 C-23 13.66 -23 14.32 -23 15 C-22.01 15 -21.02 15 -20 15 C-19.67 13.68 -19.34 12.36 -19 11 C-18.01 11 -17.02 11 -16 11 C-16.495 6.545 -16.495 6.545 -17 2 C-16.34 2.33 -15.68 2.66 -15 3 C-14.5859375 5.72265625 -14.5859375 5.72265625 -14.375 9.0625 C-14.30023438 10.16722656 -14.22546875 11.27195312 -14.1484375 12.41015625 C-14.09945312 13.26480469 -14.05046875 14.11945312 -14 15 C-13.34 15 -12.68 15 -12 15 C-11.96261719 14.15695313 -11.92523438 13.31390625 -11.88671875 12.4453125 C-11.82097656 11.34960938 -11.75523438 10.25390625 -11.6875 9.125 C-11.60048828 7.48917969 -11.60048828 7.48917969 -11.51171875 5.8203125 C-11.34285156 4.88960937 -11.17398438 3.95890625 -11 3 C-10.01 2.34 -9.02 1.68 -8 1 C-8 5.62 -8 10.24 -8 15 C-7.34 15 -6.68 15 -6 15 C-5.96132812 13.84371094 -5.96132812 13.84371094 -5.921875 12.6640625 C-5.83679687 11.15972656 -5.83679687 11.15972656 -5.75 9.625 C-5.70359375 8.62726562 -5.6571875 7.62953125 -5.609375 6.6015625 C-5.40828125 5.74304688 -5.2071875 4.88453125 -5 4 C-3.015625 2.7734375 -3.015625 2.7734375 -1 2 C-0.67 1.34 -0.34 0.68 0 0 Z " fill="#1D3012" transform="translate(61,21)"/>
<path d="M0 0 C13 0 13 0 15 1 C15 1.99 15 2.98 15 4 C14.34 4 13.68 4 13 4 C13 8.29 13 12.58 13 17 C13.66 17 14.32 17 15 17 C15 17.99 15 18.98 15 20 C15.66 20.33 16.32 20.66 17 21 C16.67 20.360625 16.34 19.72125 16 19.0625 C14.66943072 14.98763159 14.83340801 11.24809575 15 7 C17.5215021 6.91827064 20.04029917 6.85916627 22.5625 6.8125 C23.26697266 6.78736328 23.97144531 6.76222656 24.69726562 6.73632812 C29.91374455 6.6642109 33.31195062 7.72559981 38 10 C40.77888613 10.69140522 40.77888613 10.69140522 43 11 C43 11.99 43 12.98 43 14 C43.66 14 44.32 14 45 14 C49.39330786 20.24477332 50.49399551 25.90692042 50.5 33.375 C50.50580078 34.15987793 50.51160156 34.94475586 50.51757812 35.75341797 C50.42153196 40.21860419 50.1450637 42.60194646 47 46 C44.85493469 46.48101807 44.85493469 46.48101807 42.3449707 46.45410156 C41.40422195 46.45379944 40.46347321 46.45349731 39.49421692 46.45318604 C38.48163315 46.43254089 37.46904938 46.41189575 36.42578125 46.390625 C35.38681198 46.38496521 34.34784271 46.37930542 33.27738953 46.37347412 C29.95529319 46.35106327 26.63427096 46.3008569 23.3125 46.25 C21.06186452 46.22994115 18.81121216 46.21168931 16.56054688 46.1953125 C11.03961675 46.15458266 5.52101213 46.07629806 0 46 C0 30.82 0 15.64 0 0 Z " fill="#07863C" transform="translate(0,62)"/>
<path d="M0 0 C24.09 0 48.18 0 73 0 C73 8.25 73 16.5 73 25 C69.844375 25.144375 66.68875 25.28875 63.4375 25.4375 C61.9668811 25.53309204 61.9668811 25.53309204 60.46655273 25.63061523 C53.88704122 25.77537383 53.88704122 25.77537383 51.21191406 23.43701172 C50.68178711 22.80424316 50.15166016 22.17147461 49.60546875 21.51953125 C47.50143986 19.07409039 46.46708653 18.11330588 43.29370117 17.34350586 C40.12788341 17.13302546 37.04561553 17.14239123 33.875 17.25 C32.80378906 17.2396875 31.73257813 17.229375 30.62890625 17.21875 C24.12651237 17.19066447 24.12651237 17.19066447 18.8203125 20.484375 C18.21960938 21.31453125 17.61890625 22.1446875 17 23 C16.67 23.33 16.34 23.66 16 24 C15.60430892 26.01311449 15.25747809 28.03597208 14.9375 30.0625 C14.76089844 31.16722656 14.58429687 32.27195313 14.40234375 33.41015625 C14.26957031 34.26480469 14.13679688 35.11945312 14 36 C13.34 36 12.68 36 12 36 C11.90203125 35.15695313 11.8040625 34.31390625 11.703125 33.4453125 C11.55359375 32.34960938 11.4040625 31.25390625 11.25 30.125 C11.11078125 29.03445312 10.9715625 27.94390625 10.828125 26.8203125 C10.55484375 25.88960937 10.2815625 24.95890625 10 24 C8.68 23.34 7.36 22.68 6 22 C5.67 25.3 5.34 28.6 5 32 C4.67 32 4.34 32 4 32 C4 30.989375 4 29.97875 4 28.9375 C3.50457761 25.17228982 1.9316156 23.70948265 -0.9375 21.3125 C-1.64777344 20.77238281 -2.35804687 20.23226563 -3.08984375 19.67578125 C-5.1264985 17.88902279 -6.05642973 16.52468801 -7 14 C-6.625 11.75 -6.625 11.75 -6 10 C-5.01 10 -4.02 10 -3 10 C-3 11.32 -3 12.64 -3 14 C-2.01 14 -1.02 14 0 14 C0 9.38 0 4.76 0 0 Z " fill="#007738" transform="translate(35,0)"/>
<path d="M0 0 C11.22 0 22.44 0 34 0 C34 11.22 34 22.44 34 34 C31.69 34 29.38 34 27 34 C27 35.65 27 37.3 27 39 C26.01 39 25.02 39 24 39 C24 37.68 24 36.36 24 35 C23.34 35 22.68 35 22 35 C22 36.32 22 37.64 22 39 C20.68 39 19.36 39 18 39 C18.33 37.68 18.66 36.36 19 35 C12.73 34.67 6.46 34.34 0 34 C0 22.78 0 11.56 0 0 Z " fill="#4D4D4D" transform="translate(37,37)"/>
<path d="M0 0 C2.0625 0.4375 2.0625 0.4375 4 1 C3.34 2.65 2.68 4.3 2 6 C3.1446875 5.87625 3.1446875 5.87625 4.3125 5.75 C5.6428125 5.87375 5.6428125 5.87375 7 6 C7.4125 6.6496875 7.825 7.299375 8.25 7.96875 C9.90895249 10.31825435 9.90895249 10.31825435 13.13671875 10.609375 C14.30847656 10.65578125 15.48023438 10.7021875 16.6875 10.75 C17.86699219 10.80671875 19.04648437 10.8634375 20.26171875 10.921875 C21.16535156 10.94765625 22.06898437 10.9734375 23 11 C23 14.63 23 18.26 23 22 C21.68 22 20.36 22 19 22 C19 23.32 19 24.64 19 26 C19.99 26.33 20.98 26.66 22 27 C21.01 27 20.02 27 19 27 C18.67 28.32 18.34 29.64 18 31 C12.72 30.67 7.44 30.34 2 30 C2.72328909 37.0424873 2.72328909 37.0424873 4 44 C2.68 43.67 1.36 43.34 0 43 C0.66 43 1.32 43 2 43 C2 42.01 2 41.02 2 40 C1.34 40 0.68 40 0 40 C0 35.71 0 31.42 0 27 C0.66 27 1.32 27 2 27 C2 26.01 2 25.02 2 24 C-2.95 23.67 -7.9 23.34 -13 23 C-13 17.39 -13 11.78 -13 6 C-8.71 6 -4.42 6 0 6 C-0.33 4.35 -0.66 2.7 -1 1 C-0.67 0.67 -0.34 0.34 0 0 Z " fill="#003A1B" transform="translate(13,39)"/>
<path d="M0 0 C0.66 0 1.32 0 2 0 C2 1.32 2 2.64 2 4 C2.66 4 3.32 4 4 4 C10.4708596 12.98987281 9.48703251 22.45845198 9 33 C11.42867255 28.14265491 10.58340357 20.36564995 10 15 C8.97523117 11.9928181 7.63379283 9.7570254 6 7 C5.75 3.5 5.75 3.5 6 1 C6.66 1 7.32 1 8 1 C8 1.99 8 2.98 8 4 C9.32 4 10.64 4 12 4 C12 2.68 12 1.36 12 0 C12.66 0 13.32 0 14 0 C14 1.32 14 2.64 14 4 C15.32 4 16.64 4 18 4 C18.33 3.01 18.66 2.02 19 1 C21.07824879 4.43056237 21.27523255 7.17987545 21.34375 11.15625 C21.37339844 12.34347656 21.40304688 13.53070313 21.43359375 14.75390625 C21.47786458 17.25130208 21.52213542 19.74869792 21.56640625 22.24609375 C21.61087891 24.02693359 21.61087891 24.02693359 21.65625 25.84375 C21.68428711 27.47086914 21.68428711 27.47086914 21.71289062 29.13085938 C21.85929451 32.31180959 21.85929451 32.31180959 24 36 C16.74 36 9.48 36 2 36 C2.66 34.68 3.32 33.36 4 32 C4.24563934 29.20085404 4.37983777 26.54804427 4.375 23.75 C4.37628906 22.98510254 4.37757812 22.22020508 4.37890625 21.43212891 C4.26872246 15.57611107 2.99920658 12.06116111 0 7 C-0.32128627 4.55255461 -0.2063741 2.47648925 0 0 Z " fill="#008D43" transform="translate(47,72)"/>
<path d="M0 0 C1.06347656 -0.02707031 2.12695312 -0.05414062 3.22265625 -0.08203125 C11.03237037 -0.01412069 11.03237037 -0.01412069 14.07543945 2.4621582 C15.17272365 3.72778221 16.26006409 5.00210096 17.33691406 6.28515625 C20.7955878 9.36037244 25.14650474 8.86654746 29.5625 8.8125 C30.94598633 8.83666992 30.94598633 8.83666992 32.35742188 8.86132812 C34.6148154 8.89641714 36.86761107 8.90024186 39.125 8.875 C39.125 9.205 39.125 9.535 39.125 9.875 C28.73 10.37 28.73 10.37 18.125 10.875 C18.62 15.33 18.62 15.33 19.125 19.875 C16.125 22.875 16.125 22.875 12.3125 23.25 C8.30974632 23.08045426 5.46864907 22.18371007 2.125 19.875 C-0.64695664 15.08707489 -0.17992335 11.09469341 1.125 5.875 C-1.845 5.545 -4.815 5.215 -7.875 4.875 C-8.205 5.865 -8.535 6.855 -8.875 7.875 C-10.9375 8.5625 -10.9375 8.5625 -12.875 8.875 C-12.854375 9.9475 -12.83375 11.02 -12.8125 12.125 C-12.8607984 15.02290424 -13.00655885 17.16112141 -13.875 19.875 C-14.535 19.875 -15.195 19.875 -15.875 19.875 C-17.38993525 15.33019426 -17.85059689 10.48806276 -16.16210938 5.96557617 C-12.24863212 -0.61918914 -7.12317422 -0.18000801 0 0 Z " fill="#009144" transform="translate(68.875,16.125)"/>
<path d="M0 0 C6.27 0 12.54 0 19 0 C23 7 23 7 23 10 C23.90492187 9.96519531 23.90492187 9.96519531 24.828125 9.9296875 C26.02695312 9.90261719 26.02695312 9.90261719 27.25 9.875 C28.03890625 9.85179687 28.8278125 9.82859375 29.640625 9.8046875 C32.20731941 10.0171622 33.7916067 10.71345895 36 12 C36 14.31 36 16.62 36 19 C31.68489383 20.20901608 27.45398422 20.64723289 23 20 C21.25 18.0625 21.25 18.0625 20 16 C17.40144267 15.1957792 17.40144267 15.1957792 15 15 C15.33 13.35 15.66 11.7 16 10 C15.01 10 14.02 10 13 10 C13 11.65 13 13.3 13 15 C8.71 15 4.42 15 0 15 C0 10.05 0 5.1 0 0 Z " fill="#03853D" transform="translate(0,30)"/>
<path d="M0 0 C12.87 0 25.74 0 39 0 C39 3.63 39 7.26 39 11 C26.13 11 13.26 11 0 11 C0 7.37 0 3.74 0 0 Z " fill="#008F43" transform="translate(0,97)"/>
<path d="M0 0 C3.72910066 -0.0582462 7.45808364 -0.09367917 11.1875 -0.125 C12.24259766 -0.14175781 13.29769531 -0.15851562 14.38476562 -0.17578125 C15.40634766 -0.18222656 16.42792969 -0.18867187 17.48046875 -0.1953125 C18.41785889 -0.20578613 19.35524902 -0.21625977 20.32104492 -0.22705078 C24.38729482 0.11757807 27.14233321 0.99445963 29.8125 4.125 C30.204375 4.74375 30.59625 5.3625 31 6 C29.35 6 27.7 6 26 6 C26.99 6.53625 27.98 7.0725 29 7.625 C31.73186948 9.81177815 31.98757602 10.89244732 32.3984375 14.44921875 C32.37700221 17.98246903 32.25747081 21.47646435 32 25 C30.76379926 24.13496623 29.53642741 23.25731366 28.3125 22.375 C27.28576172 21.64410156 27.28576172 21.64410156 26.23828125 20.8984375 C24 19 24 19 21.828125 15.83984375 C20.22498705 13.85621127 19.37666637 13.0997711 16.88745117 12.44042969 C14.3886829 12.22103809 11.9456226 12.16648755 9.4375 12.1875 C7.74865178 12.16317239 6.05984243 12.13593245 4.37109375 12.10546875 C3.2562561 12.10776489 3.2562561 12.10776489 2.11889648 12.11010742 C-0.04011406 11.99791549 -1.92573778 11.59268824 -4 11 C-4 10.34 -4 9.68 -4 9 C0.52620188 7.71367331 4.88790717 7.81600682 9.5625 7.8125 C10.42552734 7.80025391 11.28855469 7.78800781 12.17773438 7.77539062 C13.42200195 7.77249023 13.42200195 7.77249023 14.69140625 7.76953125 C15.44623291 7.76542236 16.20105957 7.76131348 16.97875977 7.75708008 C19 8 19 8 22 10 C18.20451403 6.14263111 14.08629265 6.48875095 9 6.375 C7.39571999 6.32374505 5.79154189 6.26917004 4.1875 6.2109375 C3.12595703 6.18459229 3.12595703 6.18459229 2.04296875 6.15771484 C-0.06642032 5.99487243 -1.96593417 5.5696527 -4 5 C-4 4.34 -4 3.68 -4 3 C-2.68 3 -1.36 3 0 3 C0 2.01 0 1.02 0 0 Z " fill="#005025" transform="translate(76,50)"/>
<path d="M0 0 C16.5 0 33 0 50 0 C50 3.63 50 7.26 50 11 C46.80967461 11.19015184 43.63078123 11.32815634 40.4375 11.4375 C39.54224609 11.49615234 38.64699219 11.55480469 37.72460938 11.61523438 C30.90221638 11.79016753 30.90221638 11.79016753 28.22290039 9.44360352 C27.69559326 8.81252686 27.16828613 8.1814502 26.625 7.53125 C24.48800902 5.0406721 23.44604583 4.10718386 20.21313477 3.33032227 C16.979857 3.09125688 13.80424148 3.029794 10.5625 3.0625 C9.44939453 3.04638672 8.33628906 3.03027344 7.18945312 3.01367188 C4.45837201 2.97850774 1.73108011 2.97482141 -1 3 C-0.67 2.01 -0.34 1.02 0 0 Z " fill="#009345" transform="translate(58,12)"/>
<path d="M0 0 C1.258125 -0.020625 2.51625 -0.04125 3.8125 -0.0625 C4.52019531 -0.07410156 5.22789063 -0.08570312 5.95703125 -0.09765625 C8 0 8 0 11 1 C11 2.32 11 3.64 11 5 C10.01 5.495 10.01 5.495 9 6 C9.12375 7.11375 9.12375 7.11375 9.25 8.25 C9 11 9 11 7.3125 13.3125 C4.60883753 15.28544288 3.27034459 15.36337162 0 15 C0 15.99 0 16.98 0 18 C-2.4375 17.625 -2.4375 17.625 -5 17 C-5.33 16.34 -5.66 15.68 -6 15 C-6.33 22.59 -6.66 30.18 -7 38 C-7.33 38 -7.66 38 -8 38 C-8.08760181 33.81263332 -8.14059435 29.62550469 -8.1875 25.4375 C-8.21263672 24.25607422 -8.23777344 23.07464844 -8.26367188 21.85742188 C-8.31826263 15.36112237 -8.01257922 10.76422638 -5 5 C-5 4.01 -5 3.02 -5 2 C-3.35 2 -1.7 2 0 2 C0 1.34 0 0.68 0 0 Z " fill="#138738" transform="translate(77,65)"/>
<path d="M0 0 C0.66 0 1.32 0 2 0 C2 1.32 2 2.64 2 4 C2.66 4 3.32 4 4 4 C10.4708596 12.98987281 9.48703251 22.45845198 9 33 C10.83435809 29.33128382 10.37336838 24.74726291 10.51757812 20.67773438 C10.60890568 18.78053375 10.79713434 16.88853289 11 15 C11.66 14.67 12.32 14.34 13 14 C13 14.99 13 15.98 13 17 C13.66 17 14.32 17 15 17 C15.08117951 19.41734542 15.14056926 21.83194949 15.1875 24.25 C15.22520508 25.27287109 15.22520508 25.27287109 15.26367188 26.31640625 C15.30843336 29.39002856 15.15354499 31.68078806 13.8125 34.46875 C11.38077177 36.52314109 9.95283795 36.41313444 6.8125 36.25 C5.91144531 36.21390625 5.01039062 36.1778125 4.08203125 36.140625 C3.39496094 36.09421875 2.70789062 36.0478125 2 36 C2.48339844 35.26523438 2.48339844 35.26523438 2.9765625 34.515625 C4.41976957 30.9682 4.38152307 27.52278272 4.375 23.75 C4.37628906 22.98510254 4.37757812 22.22020508 4.37890625 21.43212891 C4.26872246 15.57611107 2.99920658 12.06116111 0 7 C-0.32128627 4.55255461 -0.2063741 2.47648925 0 0 Z " fill="#009044" transform="translate(47,72)"/>
<path d="M0 0 C1.32 0 2.64 0 4 0 C5 3 5 3 5 10 C11.93 10 18.86 10 26 10 C25.34 10.66 24.68 11.32 24 12 C23.01 12 22.02 12 21 12 C21.268125 13.19625 21.53625 14.3925 21.8125 15.625 C21.96332031 16.29789063 22.11414063 16.97078125 22.26953125 17.6640625 C22.95783028 20.14815383 22.95783028 20.14815383 24.55078125 22.76171875 C26.3378207 26.75486082 26.44653315 29.87564079 26.375 34.1875 C26.38660156 34.89841797 26.39820312 35.60933594 26.41015625 36.34179688 C26.38064795 41.56968377 26.38064795 41.56968377 24.47509766 43.72387695 C23.98831543 44.14499756 23.5015332 44.56611816 23 45 C23.0314209 44.15405273 23.0314209 44.15405273 23.06347656 43.29101562 C23.14748501 40.69419751 23.19892229 38.09766638 23.25 35.5 C23.28351562 34.613125 23.31703125 33.72625 23.3515625 32.8125 C23.44617302 26.37898436 22.18930404 22.57500391 19 17 C19 16.34 19 15.68 19 15 C18.34 15 17.68 15 17 15 C17 13.68 17 12.36 17 11 C16.34 11 15.68 11 15 11 C15.26011289 12.37706825 15.53373766 13.75158555 15.8125 15.125 C15.96332031 15.89070313 16.11414063 16.65640625 16.26953125 17.4453125 C16.92868954 20.12183102 16.92868954 20.12183102 18.55078125 22.765625 C20.39101663 26.87267324 20.44437618 30.18492426 20.375 34.625 C20.38660156 35.37523437 20.39820312 36.12546875 20.41015625 36.8984375 C20.3872868 41.19789377 20.10050063 43.89949937 17 47 C16.34 46.67 15.68 46.34 15 46 C15.66 45.01 16.32 44.02 17 43 C17.2501566 40.05920558 17.37024494 37.25350581 17.375 34.3125 C17.39949219 33.53455078 17.42398438 32.75660156 17.44921875 31.95507812 C17.47543766 26.71566608 16.49061246 23.1575732 13.86181641 18.61791992 C13 17 13 17 13 15 C11.68 15 10.36 15 9 15 C9 13.68 9 12.36 9 11 C8.01 11 7.02 11 6 11 C5.67 12.32 5.34 13.64 5 15 C4.67 13.68 4.34 12.36 4 11 C2.68 10.67 1.36 10.34 0 10 C0 6.7 0 3.4 0 0 Z " fill="#143916" transform="translate(32,61)"/>
<path d="M0 0 C4.00119895 0.98969585 8.11057809 1.22158553 12.2109375 1.546875 C12.2109375 2.536875 12.2109375 3.526875 12.2109375 4.546875 C13.2009375 4.876875 14.1909375 5.206875 15.2109375 5.546875 C14.2209375 5.546875 13.2309375 5.546875 12.2109375 5.546875 C11.8809375 6.866875 11.5509375 8.186875 11.2109375 9.546875 C5.9309375 9.216875 0.6509375 8.886875 -4.7890625 8.546875 C-4.06577341 15.5893623 -4.06577341 15.5893623 -2.7890625 22.546875 C-4.1090625 22.216875 -5.4290625 21.886875 -6.7890625 21.546875 C-6.1290625 21.546875 -5.4690625 21.546875 -4.7890625 21.546875 C-4.7890625 20.556875 -4.7890625 19.566875 -4.7890625 18.546875 C-5.4490625 18.546875 -6.1090625 18.546875 -6.7890625 18.546875 C-6.7890625 14.256875 -6.7890625 9.966875 -6.7890625 5.546875 C-6.1290625 5.546875 -5.4690625 5.546875 -4.7890625 5.546875 C-4.7890625 4.556875 -4.7890625 3.566875 -4.7890625 2.546875 C-9.7390625 2.216875 -14.6890625 1.886875 -19.7890625 1.546875 C-19.7890625 0.886875 -19.7890625 0.226875 -19.7890625 -0.453125 C-12.90640906 -1.24032184 -6.72483095 -1.84995349 0 0 Z " fill="#03391A" transform="translate(19.7890625,60.453125)"/>
<path d="M0 0 C0.474375 0.474375 0.94875 0.94875 1.4375 1.4375 C5.11644797 3.68076096 8.7621112 3.73739578 13 4 C13 3.34 13 2.68 13 2 C14.32 2 15.64 2 17 2 C17 5.63 17 9.26 17 13 C9.7253582 14.81866045 3.05688045 14.45456711 -4 12 C-3.814375 11.38125 -3.62875 10.7625 -3.4375 10.125 C-2.76313824 7.95839822 -2.76313824 7.95839822 -4 6 C-2.35 6 -0.7 6 1 6 C-1.475 5.01 -1.475 5.01 -4 4 C-2.68 2.68 -1.36 1.36 0 0 Z " fill="#007E3B" transform="translate(19,48)"/>
<path d="M0 0 C0.66 0.33 1.32 0.66 2 1 C2.08103404 3.91722548 2.14051081 6.83219516 2.1875 9.75 C2.21263672 10.575 2.23777344 11.4 2.26367188 12.25 C2.30557455 15.71395437 2.26799679 18.35680771 0.92578125 21.578125 C-1 23 -1 23 -8 23 C-8 17.06 -8 11.12 -8 5 C-4 4 -4 4 -1 4 C-0.67 2.68 -0.34 1.36 0 0 Z " fill="#009345" transform="translate(48,85)"/>
<path d="M0 0 C14.85 0 29.7 0 45 0 C45 1.32 45 2.64 45 4 C30.15 4 15.3 4 0 4 C0 2.68 0 1.36 0 0 Z " fill="#009345" transform="translate(63,0)"/>
<path d="M0 0 C0.66 0 1.32 0 2 0 C2.00257812 1.01320312 2.00515625 2.02640625 2.0078125 3.0703125 C1.88664832 11.74392013 1.88664832 11.74392013 6.0625 18.9375 C7.5165625 19.9584375 7.5165625 19.9584375 9 21 C8.67 21.66 8.34 22.32 8 23 C7.34 22.67 6.68 22.34 6 22 C5.67 25.3 5.34 28.6 5 32 C4.67 32 4.34 32 4 32 C4 30.989375 4 29.97875 4 28.9375 C3.50457761 25.17228982 1.9316156 23.70948265 -0.9375 21.3125 C-1.64777344 20.77238281 -2.35804687 20.23226563 -3.08984375 19.67578125 C-5.1264985 17.88902279 -6.05642973 16.52468801 -7 14 C-6.625 11.75 -6.625 11.75 -6 10 C-5.01 10 -4.02 10 -3 10 C-3 11.32 -3 12.64 -3 14 C-2.01 14 -1.02 14 0 14 C0 9.38 0 4.76 0 0 Z " fill="#0B5825" transform="translate(35,0)"/>
<path d="M0 0 C3.83289986 2.48911841 7.03603904 5.51069722 9.93994141 9.04638672 C9.93994141 9.70638672 9.93994141 10.36638672 9.93994141 11.04638672 C6.20333709 10.06775226 4.13669998 9.23754886 1.33056641 6.51123047 C-2.63103507 3.10932681 -6.6527165 3.30412878 -11.68505859 3.29638672 C-13.36481192 3.26309892 -15.044508 3.2267502 -16.72412109 3.18701172 C-17.82941162 3.17976074 -17.82941162 3.17976074 -18.95703125 3.17236328 C-21.10322369 3.04380102 -22.99592675 2.63280768 -25.06005859 2.04638672 C-25.06005859 1.38638672 -25.06005859 0.72638672 -25.06005859 0.04638672 C-17.58425926 -1.97865814 -7.1989164 -3.33242089 0 0 Z " fill="#009144" transform="translate(97.06005859375,58.95361328125)"/>
<path d="M0 0 C1.24426758 -0.06864258 1.24426758 -0.06864258 2.51367188 -0.13867188 C8.27466712 -0.2432519 11.25638302 0.93993398 15.49682617 4.84741211 C16.6875 6.4375 16.6875 6.4375 16.6875 9.4375 C13.6875 9.4375 13.6875 9.4375 11.56640625 7.48046875 C7.60400548 4.66861583 4.3718274 4.80746764 -0.375 4.75 C-1.97014274 4.70771911 -3.56520496 4.66225486 -5.16015625 4.61328125 C-5.86148682 4.60208252 -6.56281738 4.59088379 -7.28540039 4.5793457 C-9.39411532 4.43178899 -11.28088763 4.00831212 -13.3125 3.4375 C-13.3125 2.7775 -13.3125 2.1175 -13.3125 1.4375 C-8.87133926 0.20429657 -4.58649221 0.10192205 0 0 Z " fill="#009145" transform="translate(85.3125,51.5625)"/>
<path d="M0 0 C3.08283443 -0.14554346 6.16478439 -0.23413821 9.25 -0.3125 C10.12269531 -0.35439453 10.99539062 -0.39628906 11.89453125 -0.43945312 C14.36035094 -0.48651075 16.57820612 -0.47326916 19 0 C21.609375 2.51953125 21.609375 2.51953125 23 5 C22.2575 4.62875 21.515 4.2575 20.75 3.875 C18.05716353 2.70484137 18.05716353 2.70484137 15.6875 3.875 C15.130625 4.24625 14.57375 4.6175 14 5 C14 6.32 14 7.64 14 9 C13.01 9 12.02 9 11 9 C11.103125 9.886875 11.20625 10.77375 11.3125 11.6875 C11 15 11 15 8.8125 17.875 C6 20 6 20 3.1875 20.3125 C2.465625 20.209375 1.74375 20.10625 1 20 C1 19.34 1 18.68 1 18 C2.423125 17.566875 2.423125 17.566875 3.875 17.125 C7.05211578 16.23174891 7.05211578 16.23174891 9 14 C9.24212873 12.01871492 9.24212873 12.01871492 9.125 9.875 C9.08375 8.59625 9.0425 7.3175 9 6 C9.33 6.66 9.66 7.32 10 8 C10.66 8 11.32 8 12 8 C12 6.68 12 5.36 12 4 C8.37 3.67 4.74 3.34 1 3 C0.67 3.66 0.34 4.32 0 5 C-0.99 4.34 -1.98 3.68 -3 3 C-2.01 3 -1.02 3 0 3 C0 2.01 0 1.02 0 0 Z " fill="#035326" transform="translate(76,62)"/>
<path d="M0 0 C0.33 0.66 0.66 1.32 1 2 C3.02463255 2.65213292 3.02463255 2.65213292 5 3 C5 3.66 5 4.32 5 5 C3.68 5 2.36 5 1 5 C1 5.99 1 6.98 1 8 C2.32 8.33 3.64 8.66 5 9 C4.38125 9.061875 3.7625 9.12375 3.125 9.1875 C0.7923875 9.80818955 0.7923875 9.80818955 -0.11621094 12.17578125 C-1.08330999 15.26622374 -1.25855043 17.76590985 -1.265625 21 C-1.26820312 22.134375 -1.27078125 23.26875 -1.2734375 24.4375 C-1.26570313 25.613125 -1.25796875 26.78875 -1.25 28 C-1.25773437 29.175625 -1.26546875 30.35125 -1.2734375 31.5625 C-1.27085938 32.696875 -1.26828125 33.83125 -1.265625 35 C-1.26336914 36.03125 -1.26111328 37.0625 -1.25878906 38.125 C-0.99067741 41.10356867 -0.25012032 43.29864765 1 46 C-1.71916267 43.77350792 -2.89263093 42.57679666 -3.54589844 39.06738281 C-3.57731934 37.4020752 -3.57731934 37.4020752 -3.609375 35.703125 C-3.64160156 34.49785156 -3.67382812 33.29257813 -3.70703125 32.05078125 C-3.72121094 30.79652344 -3.73539062 29.54226562 -3.75 28.25 C-3.77964844 26.98027344 -3.80929688 25.71054688 -3.83984375 24.40234375 C-3.91053951 21.26816515 -3.96324012 18.13473044 -4 15 C-4.99 14.67 -5.98 14.34 -7 14 C-7 12.35 -7 10.7 -7 9 C-4.69 9 -2.38 9 0 9 C0 6.03 0 3.06 0 0 Z " fill="#052214" transform="translate(71,62)"/>
<path d="M0 0 C0.1875 3.125 0.1875 3.125 0 6 C-0.66 6 -1.32 6 -2 6 C-2.33 6.99 -2.66 7.98 -3 9 C-3.33 9.33 -3.66 9.66 -4 10 C-5.65 10 -7.3 10 -9 10 C-9.33 6.7 -9.66 3.4 -10 0 C-9.01 -0.33 -8.02 -0.66 -7 -1 C-6.34 -1.226875 -5.68 -1.45375 -5 -1.6875 C-3 -2 -3 -2 0 0 Z " fill="#12893A" transform="translate(68,26)"/>
<path d="M0 0 C6.35583327 0.86670454 12.67551301 1.93034128 19 3 C18.01 3.33 17.02 3.66 16 4 C16 4.66 16 5.32 16 6 C10.39 6 4.78 6 -1 6 C-0.67 4.02 -0.34 2.04 0 0 Z " fill="#009345" transform="translate(16,62)"/>
<path d="M0 0 C4.29 0 8.58 0 13 0 C13 1.98 13 3.96 13 6 C8.71 6 4.42 6 0 6 C0 4.02 0 2.04 0 0 Z " fill="#009446" transform="translate(0,54)"/>
<path d="M0 0 C4.29 0 8.58 0 13 0 C13 1.98 13 3.96 13 6 C8.71 6 4.42 6 0 6 C0 4.02 0 2.04 0 0 Z " fill="#009446" transform="translate(0,46)"/>
<path d="M0 0 C2.0625 0.4375 2.0625 0.4375 4 1 C3.34 2.65 2.68 4.3 2 6 C3.1446875 5.87625 3.1446875 5.87625 4.3125 5.75 C5.6428125 5.87375 5.6428125 5.87375 7 6 C7.4125 6.639375 7.825 7.27875 8.25 7.9375 C10.4333999 10.51079274 11.409423 10.40736169 14.6875 10.75 C16.12388098 10.85079867 17.5613506 10.93967927 19 11 C19 11.66 19 12.32 19 13 C17.58603027 13.13595863 16.16823316 13.23243845 14.75 13.3125 C13.56664062 13.39951172 13.56664062 13.39951172 12.359375 13.48828125 C10 13 10 13 8.3125 10.53125 C5.68855529 7.65909431 5.15055023 7.597164 1.453125 7.29296875 C-0.28058369 7.23341387 -2.01530704 7.19903046 -3.75 7.1875 C-4.63816406 7.16236328 -5.52632813 7.13722656 -6.44140625 7.11132812 C-8.62804918 7.0525474 -10.81269532 7.01620461 -13 7 C-13 6.67 -13 6.34 -13 6 C-8.71 6 -4.42 6 0 6 C-0.33 4.35 -0.66 2.7 -1 1 C-0.67 0.67 -0.34 0.34 0 0 Z " fill="#002C15" transform="translate(13,39)"/>
<path d="M0 0 C1.32 0 2.64 0 4 0 C4 2.64 4 5.28 4 8 C2.68 8 1.36 8 0 8 C0 7.34 0 6.68 0 6 C-2.97 6 -5.94 6 -9 6 C-9.33 5.01 -9.66 4.02 -10 3 C-9.36191406 2.95101562 -8.72382813 2.90203125 -8.06640625 2.8515625 C-7.24011719 2.77679688 -6.41382813 2.70203125 -5.5625 2.625 C-4.73878906 2.55539063 -3.91507813 2.48578125 -3.06640625 2.4140625 C-2.38449219 2.27742188 -1.70257813 2.14078125 -1 2 C-0.67 1.34 -0.34 0.68 0 0 Z " fill="#328429" transform="translate(32,50)"/>
<path d="M0 0 C3 1 3 1 4 3 C4.04022391 5.3329866 4.04320247 7.66706666 4 10 C3.34 10 2.68 10 2 10 C1.67 11.32 1.34 12.64 1 14 C-0.32 14 -1.64 14 -3 14 C-3.33 12.68 -3.66 11.36 -4 10 C-3.01 10 -2.02 10 -1 10 C-1.020625 8.72125 -1.04125 7.4425 -1.0625 6.125 C-1.125 2.25 -1.125 2.25 0 0 Z " fill="#1A8333" transform="translate(41,22)"/>
<path d="M0 0 C1.32 0.33 2.64 0.66 4 1 C3.84402344 1.50402344 3.68804687 2.00804688 3.52734375 2.52734375 C2.68022892 6.49937106 2.64158454 10.55066646 2.48242188 14.59960938 C2.29171703 18.2230015 2.06208092 19.90687862 0 23 C-0.66 22.67 -1.32 22.34 -2 22 C-1.01 20.515 -1.01 20.515 0 19 C0.29991069 16.41114829 0.50865225 13.90850918 0.625 11.3125 C0.66367187 10.61060547 0.70234375 9.90871094 0.7421875 9.18554688 C0.8362334 7.45745345 0.9191968 5.72876325 1 4 C0.34 4 -0.32 4 -1 4 C-0.67 2.68 -0.34 1.36 0 0 Z " fill="#273F0E" transform="translate(61,85)"/>
<path d="M0 0 C2.97 0 5.94 0 9 0 C9.33 1.32 9.66 2.64 10 4 C6.18510326 5.46726798 3.70988378 4.43336419 0 3 C0 2.01 0 1.02 0 0 Z " fill="#546911" transform="translate(61,21)"/>
<path d="M0 0 C1.32 0.99 2.64 1.98 4 3 C2.35 3 0.7 3 -1 3 C-1.33 6.3 -1.66 9.6 -2 13 C-2.99 13 -3.98 13 -5 13 C-4.94004678 11.20739868 -4.8512759 9.41574205 -4.75 7.625 C-4.70359375 6.62726562 -4.6571875 5.62953125 -4.609375 4.6015625 C-4 2 -4 2 -1.953125 0.6484375 C-1.30859375 0.43445313 -0.6640625 0.22046875 0 0 Z " fill="#2E4910" transform="translate(60,23)"/>
<path d="M0 0 C6.4 0.36923077 6.4 0.36923077 9.4375 3.5625 C9.953125 4.366875 10.46875 5.17125 11 6 C4.63636364 6.48951049 4.63636364 6.48951049 1.5625 4.125 C0 2 0 2 0 0 Z " fill="#007035" transform="translate(96,50)"/>
<path d="M0 0 C0 1.65 0 3.3 0 5 C-0.99 5 -1.98 5 -3 5 C-3 3.68 -3 2.36 -3 1 C-3.66 1 -4.32 1 -5 1 C-5 2.32 -5 3.64 -5 5 C-6.32 5 -7.64 5 -9 5 C-8.625 3.0625 -8.625 3.0625 -8 1 C-5.29120665 -0.35439668 -2.99066732 -0.06501451 0 0 Z " fill="#635B07" transform="translate(64,71)"/>
<path d="M0 0 C0.495 0.474375 0.99 0.94875 1.5 1.4375 C4.99468651 3.62167907 7.90966936 3.65913911 12 4 C12 4.33 12 4.66 12 5 C9.03 5 6.06 5 3 5 C2.67 5.66 2.34 6.32 2 7 C1.34 6.34 0.68 5.68 0 5 C-1.31747324 4.30251417 -2.64914193 3.63040043 -4 3 C-2.68 2.01 -1.36 1.02 0 0 Z " fill="#009345" transform="translate(19,48)"/>
<path d="M0 0 C2.0625 0.4375 2.0625 0.4375 4 1 C3.77169299 2.62818946 3.51656424 4.2526349 3.25 5.875 C3.11078125 6.77992187 2.9715625 7.68484375 2.828125 8.6171875 C2 11 2 11 -0.078125 12.3203125 C-0.71234375 12.54460938 -1.3465625 12.76890625 -2 13 C-1.34 12.01 -0.68 11.02 0 10 C0.20105944 7.38622728 0.07342014 5.29368056 -0.5625 2.75 C-0.706875 2.1725 -0.85125 1.595 -1 1 C-0.67 0.67 -0.34 0.34 0 0 Z " fill="#31450E" transform="translate(87,26)"/>
<path d="M0 0 C5.75 1.875 5.75 1.875 8 3 C7.67 2.01 7.34 1.02 7 0 C7.66 0 8.32 0 9 0 C9 2.64 9 5.28 9 8 C7.68388323 7.04663979 6.37221039 6.08714226 5.0625 5.125 C4.33160156 4.59132813 3.60070312 4.05765625 2.84765625 3.5078125 C1 2 1 2 0 0 Z " fill="#005226" transform="translate(99,67)"/>
<path d="M0 0 C0.99 0 1.98 0 3 0 C3 1.32 3 2.64 3 4 C1.68 4 0.36 4 -1 4 C-1 4.66 -1 5.32 -1 6 C0.32 6 1.64 6 3 6 C3 6.99 3 7.98 3 9 C1.68 9 0.36 9 -1 9 C-1.625 6.1875 -1.625 6.1875 -2 3 C-1.34 2.01 -0.68 1.02 0 0 Z " fill="#696106" transform="translate(73,55)"/>
<path d="M0 0 C1.98 0 3.96 0 6 0 C6 0.99 6 1.98 6 3 C3 5 3 5 -1 5 C-0.67 3.35 -0.34 1.7 0 0 Z " fill="#337221" transform="translate(13,46)"/>
<path d="M0 0 C1.38226016 2.76452033 1.09525387 5.0461363 1.0625 8.125 C1.05347656 9.22070312 1.04445312 10.31640625 1.03515625 11.4453125 C1.02355469 12.28835937 1.01195312 13.13140625 1 14 C0.01 14 -0.98 14 -2 14 C-2.05389087 12.04196493 -2.09274217 10.08351091 -2.125 8.125 C-2.14820313 7.03445312 -2.17140625 5.94390625 -2.1953125 4.8203125 C-2 2 -2 2 0 0 Z " fill="#325011" transform="translate(52,22)"/>
<path d="M0 0 C0.33 1.32 0.66 2.64 1 4 C-3.79300133 5.39151652 -8.15135782 4.68662689 -13 4 C-13 3.67 -13 3.34 -13 3 C-10.03 3 -7.06 3 -4 3 C-4 2.34 -4 1.68 -4 1 C-2.68 0.67 -1.36 0.34 0 0 Z " fill="#39410B" transform="translate(36,36)"/>
<path d="M0 0 C0 0.99 0 1.98 0 3 C-0.99 3.33 -1.98 3.66 -3 4 C-3 2.68 -3 1.36 -3 0 C-3.66 0 -4.32 0 -5 0 C-5 1.32 -5 2.64 -5 4 C-5.99 4 -6.98 4 -8 4 C-8 2.68 -8 1.36 -8 0 C-5.13822943 -1.43088528 -3.06624227 -0.59991697 0 0 Z " fill="#736A06" transform="translate(52,72)"/>
<path d="M0 0 C-0.125 1.8125 -0.125 1.8125 -1 4 C-4.0625 5.75 -4.0625 5.75 -7 7 C-6.39816251 4.97954558 -5.72693904 2.97888961 -5 1 C-3 0 -3 0 0 0 Z " fill="#46530B" transform="translate(98,74)"/>
<path d="M0 0 C0.99 0.495 0.99 0.495 2 1 C2.4140625 3.72265625 2.4140625 3.72265625 2.625 7.0625 C2.69976562 8.16722656 2.77453125 9.27195312 2.8515625 10.41015625 C2.90054688 11.26480469 2.94953125 12.11945312 3 13 C2.01 13 1.02 13 0 13 C0 8.71 0 4.42 0 0 Z " fill="#475008" transform="translate(44,23)"/>
<path d="M0 0 C2.475 0.495 2.475 0.495 5 1 C4.67 1.99 4.34 2.98 4 4 C2.68 4 1.36 4 0 4 C0 2.68 0 1.36 0 0 Z " fill="#585D09" transform="translate(12,55)"/>
<path d="M0 0 C1.65 0 3.3 0 5 0 C5 1.32 5 2.64 5 4 C4.01 4.33 3.02 4.66 2 5 C1.34 3.35 0.68 1.7 0 0 Z " fill="#5B6D0F" transform="translate(65,72)"/>
<path d="M0 0 C1.98 0.495 1.98 0.495 4 1 C3.67 1.99 3.34 2.98 3 4 C1.68 4 0.36 4 -1 4 C-0.67 2.68 -0.34 1.36 0 0 Z " fill="#5D6008" transform="translate(13,39)"/>
</svg>
